inDegrees=yes
name=ik_lifting_orientations
DataType=double
version=3
OpenSimVersion=4.5-2024-01-10-34fd6af
endheader
time	pelvis_tilt	pelvis_list	pelvis_rotation	pelvis_tx	pelvis_ty	pelvis_tz	hip_flexion_r	hip_adduction_r	hip_rotation_r	knee_angle_r	knee_angle_r_beta	ankle_angle_r	subtalar_angle_r	mtp_angle_r	hip_flexion_l	hip_adduction_l	hip_rotation_l	knee_angle_l	knee_angle_l_beta	ankle_angle_l	subtalar_angle_l	mtp_angle_l	lumbar_extension	lumbar_bending	lumbar_rotation	arm_flex_r	arm_add_r	arm_rot_r	elbow_flex_r	pro_sup_r	wrist_flex_r	wrist_dev_r	arm_flex_l	arm_add_l	arm_rot_l	elbow_flex_l	pro_sup_l	wrist_flex_l	wrist_dev_l
0.02	0.0002226569345403126	0.0001460677890725082	8.770879346700786	0	0.9399999998679526	0	41.00089099869378	-10.48040990729768	0	62.32185523776371	1.08772156985025	-5.208777584515265	0	0	41.00089099869378	-10.48040990729768	0	62.32185523776371	1.08772156985025	-5.208777584515265	0	0	-0.0007340809431566895	0.0008321498320478348	9.13089077089832e-05	-0.2349990221062565	-0.05610646837532474	-0.006211433409119397	0.4917115772434509	0.5803493742516398	0	0	0	-9.881019373047645	0	89.46734102492445	0.5803493742516398	0	0
0.03	-0.001722708751746229	-0.001120930918172703	8.771047664687126	0	0.9399999998679526	0	41.00395204179286	-10.47913247870277	0	62.32046235215579	1.087697259410288	-5.208054504421862	0	0	41.00395204179286	-10.47913247870277	0	62.32046235215579	1.087697259410288	-5.208054504421862	0	0	-2.091087333445162	-0.2840468880062388	0.824100905889539	1.858615441234654	0.2030083902549316	-0.846021178593821	0.4923945287422268	0.5800410666157017	0	0	0	-9.883024699161231	0	89.46762390526476	0.5800410666157017	0	0
0.04	-0.05827419205728054	-1.70135223135005	9.687021537649299	0	0.9399999998679526	0	41.00519755534702	-10.478612921114	0	62.31989477457836	1.087687353312802	-5.207760343915134	0	0	41.00519755534702	-10.478612921114	0	62.31989477457836	1.087687353312802	-5.207760343915134	0	0	-3.664263039344813	-0.02800228070645365	0.928062337036491	3.776537838393696	1.09878238673676	-1.922696347866111	0.3304986160300086	0.579915552202265	0	0	0	-9.883841518393883	0	89.46773906803215	0.579915552202265	0	0
0.05	-0.05548679081527235	-1.69911961102755	9.684969721968473	0	0.9399999998679526	0	41.00652111435526	-10.47805942497401	0	62.31929323640721	1.087676854491139	-5.20744688110999	0	0	41.00652111435526	-10.47805942497401	0	62.31929323640721	1.087676854491139	-5.20744688110999	0	0	-5.877858373467838	-0.7930077129957568	2.25883899528181	5.891261708408291	1.410208733069615	-2.765292607237333	0.3953861696273274	0.5797823014021481	0	0	0	-9.884707967444267	0	89.46786132913452	0.5797823014021481	0	0
0.06	0.06291813005765678	-3.297938678184897	9.762322057477446	0	0.9399999998679526	0	41.00792226670153	-10.47747454673435	0	62.31865579681738	1.087665729071514	-5.207115814954016	0	0	41.00792226670153	-10.47747454673435	0	62.31865579681738	1.087665729071514	-5.207115814954016	0	0	-7.151844055981354	0.861153021202271	2.500301491253439	6.889179801312009	0.2332576943415254	-2.464042167250216	0.2598715064995666	0.5796411742066404	0	0	0	-9.885625963655896	0	89.46799081703773	0.5796411742066404	0	0
0.07000000000000001	-0.8900636134443142	-4.077478203305644	11.21305001150823	0	0.9399999998679526	0	41.00954454502897	-10.47679888955809	0	62.31791694347339	1.087652833647972	-5.206733619674147	0	0	41.00954454502897	-10.47679888955809	0	62.31791694347339	1.087652833647972	-5.206733619674147	0	0	-7.92605082398906	0.1452449207433903	2.022863549264186	8.828329608985374	1.522436743926775	-3.580233201651787	0.2582352649348216	0.5794776897711517	0	0	0	-9.88668981032769	0	89.46814081829707	0.5794776897711517	0	0
0.08	-0.1603474515357057	-4.945622565386024	12.27489032082451	0	0.9399999998679526	0	41.01097944576837	-10.47620304620277	0	62.31726237547708	1.087641409281258	-5.206396851479045	0	0	41.01097944576837	-10.47620304620277	0	62.31726237547708	1.087641409281258	-5.206396851479045	0	0	-10.18566889448064	2.070902116775934	1.789489296641202	10.41994722224668	-0.4182407612149797	-4.657079634539878	0.229783685746886	0.5793329835571022	0	0	0	-9.887631989189325	0	89.46827359004801	0.5793329835571022	0	0
0.09	-1.618874403256604	-6.656931793234836	11.97089300937233	0	0.9399999998679526	0	41.01221228087595	-10.47569185558148	0	62.31669957367738	1.087631586536817	-5.206108052841948	0	0	41.01221228087595	-10.47569185558148	0	62.31669957367738	1.087631586536817	-5.206108052841948	0	0	-9.574217495832592	2.348343002855899	2.381011893497717	11.61860764699912	0.2584376877586222	-5.010675255415012	0.2139456126345629	0.5792086114394236	0	0	0	-9.888441996070716	0	89.46838770473275	0.5792086114394236	0	0
0.1	-1.746770674701114	-8.363647835761219	14.44703575707293	0	0.9399999998679526	0	41.01346304658755	-10.47517324503528	0	62.31612889098658	1.087621626244878	-5.205815116830264	0	0	41.01346304658755	-10.47517324503528	0	62.31612889098658	1.087621626244878	-5.205815116830264	0	0	-9.673524734310465	3.917772255160742	0.9470155236496283	12.06036962814203	-0.6141006336921805	-5.915647595631502	0.2411309964526389	0.579082447876161	0	0	0	-9.889263556240481	0	89.46850346311555	0.579082447876161	0	0
0.11	-2.352911291717784	-10.96427997708821	15.19917781872282	0	0.9399999998679526	0	41.01640849507678	-10.47395356551884	0	62.31478714435263	1.087598208348388	-5.205126921542593	0	0	41.01640849507678	-10.47395356551884	0	62.31478714435263	1.087598208348388	-5.205126921542593	0	0	-10.28354290365795	5.937092186551641	0.3087349023407962	13.72639026099725	-0.6547134403239314	-5.689474410670245	0.3556203166566441	0.5787854598647398	0	0	0	-9.891196560242438	0	89.46877595741329	0.5787854598647398	0	0
0.12	-2.352231234552548	-12.69060386643409	17.70026514784361	0	0.9399999998679526	0	41.01791850839704	-10.47332867858651	0	62.31409842730429	1.08758618796828	-5.204774309696972	0	0	41.01791850839704	-10.47332867858651	0	62.31409842730429	1.08758618796828	-5.204774309696972	0	0	-10.51063497294884	8.268764252494753	-0.6073047881248743	14.37749926488197	-2.456794469801548	-6.853383332538987	0.3575731833479658	0.5786331304655258	0	0	0	-9.892188509982969	0	89.46891572363866	0.5786331304655258	0	0
